<svg width="109" height="22" viewBox="0 0 109 22" fill="none" xmlns="http://www.w3.org/2000/svg">
<path d="M10 19.9583C5.63334 19.9583 2.08334 16.4083 2.08334 12.0417C2.08334 7.675 5.63334 4.125 10 4.125C14.3667 4.125 17.9167 7.675 17.9167 12.0417C17.9167 16.4083 14.3667 19.9583 10 19.9583ZM10 5.375C6.32501 5.375 3.33334 8.36667 3.33334 12.0417C3.33334 15.7167 6.32501 18.7083 10 18.7083C13.675 18.7083 16.6667 15.7167 16.6667 12.0417C16.6667 8.36667 13.675 5.375 10 5.375Z" fill="#E60A2B"/>
<path d="M10 12.4584C9.65833 12.4584 9.375 12.175 9.375 11.8334V7.66669C9.375 7.32502 9.65833 7.04169 10 7.04169C10.3417 7.04169 10.625 7.32502 10.625 7.66669V11.8334C10.625 12.175 10.3417 12.4584 10 12.4584Z" fill="#E60A2B"/>
<path d="M12.5 3.29169H7.5C7.15833 3.29169 6.875 3.00835 6.875 2.66669C6.875 2.32502 7.15833 2.04169 7.5 2.04169H12.5C12.8417 2.04169 13.125 2.32502 13.125 2.66669C13.125 3.00835 12.8417 3.29169 12.5 3.29169Z" fill="#E60A2B"/>
<path d="M29.124 16.21C31.455 16.21 32.988 14.929 33.562 12.927L32.295 12.591C31.882 14.089 30.825 15.02 29.124 15.02C26.87 15.02 25.722 13.375 25.736 10.96C25.75 8.545 26.87 6.9 29.124 6.9C30.825 6.9 31.882 7.831 32.295 9.329L33.562 8.993C32.988 6.991 31.455 5.71 29.124 5.71C26.107 5.71 24.42 7.852 24.42 10.96C24.42 14.068 26.107 16.21 29.124 16.21ZM38.1172 16.21C40.3642 16.21 41.7642 14.586 41.7642 12.213C41.7642 9.875 40.3852 8.23 38.1172 8.23C35.8982 8.23 34.4772 9.84 34.4772 12.213C34.4772 14.558 35.8562 16.21 38.1172 16.21ZM38.1172 15.027C36.5912 15.027 35.8002 13.921 35.8002 12.213C35.8002 10.561 36.5352 9.413 38.1172 9.413C39.6642 9.413 40.4412 10.512 40.4412 12.213C40.4412 13.879 39.6782 15.027 38.1172 15.027ZM50.8544 8.244C49.8604 8.244 49.0134 8.713 48.5654 9.49C48.1594 8.699 47.3824 8.244 46.3604 8.244C45.4574 8.244 44.6874 8.629 44.2114 9.245V8.44H43.0984V16H44.3514V11.198C44.3514 10.092 45.0094 9.357 45.9964 9.357C46.9834 9.357 47.6344 10.064 47.6344 11.212L47.6274 16H48.8664L48.8734 11.198C48.8734 9.924 49.6784 9.357 50.5254 9.357C51.4774 9.357 52.1494 10.036 52.1494 11.163L52.1424 16H53.3884L53.3954 10.89C53.3954 9.28 52.4294 8.244 50.8544 8.244ZM56.4047 7.103V5.815H55.1587V7.103H56.4047ZM56.4047 16V8.44H55.1587V16H56.4047ZM61.938 8.244C60.846 8.244 59.978 8.664 59.418 9.413V8.44H58.298V16H59.558V12.017C59.558 10.267 60.384 9.427 61.637 9.427C63.233 9.427 63.688 10.792 63.688 12.213V16H64.948V11.821C64.948 10.386 64.374 8.244 61.938 8.244ZM71.9019 9.287C71.3489 8.622 70.5579 8.23 69.5289 8.23C67.4289 8.23 66.1479 9.945 66.1479 12.213C66.1479 14.481 67.4219 16.21 69.5359 16.21C70.4669 16.21 71.2159 15.874 71.7549 15.307V16.035C71.7689 17.575 71.0759 18.366 69.6339 18.366C68.8989 18.366 68.1499 18.051 67.7789 17.309L66.6379 17.911C67.2679 19.038 68.4369 19.57 69.6269 19.57C71.4329 19.57 72.6229 18.821 72.9169 17.211C72.9869 16.84 73.0079 16.469 73.0079 16.049V8.44H71.9019V9.287ZM69.6899 15.069C68.1989 15.069 67.4709 13.823 67.4709 12.213C67.4709 10.617 68.1849 9.371 69.7249 9.371C71.2019 9.371 71.9019 10.54 71.9019 12.213C71.9019 13.872 71.2159 15.069 69.6899 15.069ZM80.2212 16.203C82.1042 16.203 83.2452 15.321 83.2452 13.858C83.2452 12.689 82.5942 12.129 80.5992 11.618C78.8212 11.17 78.4362 10.932 78.4362 10.379C78.4362 9.735 79.1082 9.315 80.0882 9.343C81.1172 9.371 81.8172 9.868 81.9432 10.673L83.2172 10.442C83.0562 9.112 81.8102 8.23 80.0882 8.23C78.3452 8.23 77.1832 9.112 77.1832 10.442C77.1832 11.527 77.8202 12.045 79.8222 12.577C81.6702 13.074 81.9572 13.256 81.9572 13.893C81.9572 14.635 81.3272 15.09 80.2982 15.09C79.2062 15.09 78.4222 14.579 78.2192 13.753L76.9452 13.956C77.2042 15.377 78.4152 16.203 80.2212 16.203ZM87.809 16.21C90.056 16.21 91.456 14.586 91.456 12.213C91.456 9.875 90.077 8.23 87.809 8.23C85.59 8.23 84.169 9.84 84.169 12.213C84.169 14.558 85.548 16.21 87.809 16.21ZM87.809 15.027C86.283 15.027 85.492 13.921 85.492 12.213C85.492 10.561 86.227 9.413 87.809 9.413C89.356 9.413 90.133 10.512 90.133 12.213C90.133 13.879 89.37 15.027 87.809 15.027ZM96.0172 16.21C98.2642 16.21 99.6642 14.586 99.6642 12.213C99.6642 9.875 98.2852 8.23 96.0172 8.23C93.7982 8.23 92.3772 9.84 92.3772 12.213C92.3772 14.558 93.7562 16.21 96.0172 16.21ZM96.0172 15.027C94.4912 15.027 93.7002 13.921 93.7002 12.213C93.7002 10.561 94.4352 9.413 96.0172 9.413C97.5642 9.413 98.3412 10.512 98.3412 12.213C98.3412 13.879 97.5782 15.027 96.0172 15.027ZM104.638 8.244C103.546 8.244 102.678 8.664 102.118 9.413V8.44H100.998V16H102.258V12.017C102.258 10.267 103.084 9.427 104.337 9.427C105.933 9.427 106.388 10.792 106.388 12.213V16H107.648V11.821C107.648 10.386 107.074 8.244 104.638 8.244Z" fill="#E60A2B"/>
</svg>
